<mxfile host="app.diagrams.net" modified="2023-04-21T11:07:57.294Z" agent="Mozilla/5.0 (Windows NT 10.0; Win64; x64) AppleWebKit/537.36 (KHTML, like Gecko) Chrome/112.0.0.0 Safari/537.36" etag="2gkcm5_nJoCoQNlA3vEU" version="21.2.0" type="device">
  <diagram name="Trang-1" id="Ju3BPETCcRzAaH2opY3h">
    <mxGraphModel dx="1500" dy="-27" grid="0" gridSize="10" guides="1" tooltips="1" connect="1" arrows="1" fold="1" page="0" pageScale="1" pageWidth="827" pageHeight="1169" math="0" shadow="0">
      <root>
        <mxCell id="0" />
        <mxCell id="1" parent="0" />
        <mxCell id="VdgBtDxcyZcr-hhBuZzk-21" value="" style="edgeStyle=orthogonalEdgeStyle;rounded=0;orthogonalLoop=1;jettySize=auto;html=1;" parent="1" source="VdgBtDxcyZcr-hhBuZzk-1" target="VdgBtDxcyZcr-hhBuZzk-2" edge="1">
          <mxGeometry relative="1" as="geometry" />
        </mxCell>
        <mxCell id="VdgBtDxcyZcr-hhBuZzk-1" value="BẮT ĐẦU" style="ellipse;whiteSpace=wrap;html=1;" parent="1" vertex="1">
          <mxGeometry x="580" y="1189" width="120" height="80" as="geometry" />
        </mxCell>
        <mxCell id="VdgBtDxcyZcr-hhBuZzk-22" value="" style="edgeStyle=orthogonalEdgeStyle;rounded=0;orthogonalLoop=1;jettySize=auto;html=1;" parent="1" source="VdgBtDxcyZcr-hhBuZzk-2" target="VdgBtDxcyZcr-hhBuZzk-3" edge="1">
          <mxGeometry relative="1" as="geometry" />
        </mxCell>
        <mxCell id="VdgBtDxcyZcr-hhBuZzk-30" value="" style="edgeStyle=orthogonalEdgeStyle;rounded=0;orthogonalLoop=1;jettySize=auto;html=1;" parent="1" source="VdgBtDxcyZcr-hhBuZzk-2" target="VdgBtDxcyZcr-hhBuZzk-28" edge="1">
          <mxGeometry relative="1" as="geometry" />
        </mxCell>
        <mxCell id="VdgBtDxcyZcr-hhBuZzk-2" value="PHÉP NHÂN * ?" style="rhombus;whiteSpace=wrap;html=1;" parent="1" vertex="1">
          <mxGeometry x="560" y="1302" width="160" height="80" as="geometry" />
        </mxCell>
        <mxCell id="QY7ScXj4Pk4GNkb7YtmK-2" value="" style="edgeStyle=orthogonalEdgeStyle;rounded=0;orthogonalLoop=1;jettySize=auto;html=1;" parent="1" source="VdgBtDxcyZcr-hhBuZzk-3" target="VdgBtDxcyZcr-hhBuZzk-5" edge="1">
          <mxGeometry relative="1" as="geometry" />
        </mxCell>
        <mxCell id="NfuE55aOUpUb1wabYVEY-4" value="" style="edgeStyle=orthogonalEdgeStyle;rounded=0;orthogonalLoop=1;jettySize=auto;html=1;entryX=1;entryY=0.5;entryDx=0;entryDy=0;" edge="1" parent="1" source="VdgBtDxcyZcr-hhBuZzk-3" target="VdgBtDxcyZcr-hhBuZzk-10">
          <mxGeometry relative="1" as="geometry" />
        </mxCell>
        <mxCell id="VdgBtDxcyZcr-hhBuZzk-3" value="PHÉP CHIA / ?" style="rhombus;whiteSpace=wrap;html=1;" parent="1" vertex="1">
          <mxGeometry x="560" y="1422" width="160" height="80" as="geometry" />
        </mxCell>
        <mxCell id="QY7ScXj4Pk4GNkb7YtmK-4" value="" style="edgeStyle=orthogonalEdgeStyle;rounded=0;orthogonalLoop=1;jettySize=auto;html=1;" parent="1" source="VdgBtDxcyZcr-hhBuZzk-5" target="QY7ScXj4Pk4GNkb7YtmK-3" edge="1">
          <mxGeometry relative="1" as="geometry" />
        </mxCell>
        <mxCell id="VdgBtDxcyZcr-hhBuZzk-5" value="PHÉP TRỪ - ?" style="rhombus;whiteSpace=wrap;html=1;" parent="1" vertex="1">
          <mxGeometry x="560" y="1540" width="160" height="80" as="geometry" />
        </mxCell>
        <mxCell id="VdgBtDxcyZcr-hhBuZzk-26" value="" style="edgeStyle=orthogonalEdgeStyle;rounded=0;orthogonalLoop=1;jettySize=auto;html=1;" parent="1" source="VdgBtDxcyZcr-hhBuZzk-7" target="VdgBtDxcyZcr-hhBuZzk-20" edge="1">
          <mxGeometry relative="1" as="geometry" />
        </mxCell>
        <mxCell id="VdgBtDxcyZcr-hhBuZzk-7" value="IN KẾT QUẢ RA LCD,&amp;nbsp;&lt;br&gt;DELAY 1s,&lt;br&gt;XÓA MÀN HÌNH" style="rounded=0;whiteSpace=wrap;html=1;" parent="1" vertex="1">
          <mxGeometry x="560" y="1776" width="160" height="70" as="geometry" />
        </mxCell>
        <mxCell id="VdgBtDxcyZcr-hhBuZzk-34" value="" style="edgeStyle=orthogonalEdgeStyle;rounded=0;orthogonalLoop=1;jettySize=auto;html=1;entryX=0.5;entryY=0;entryDx=0;entryDy=0;" parent="1" source="VdgBtDxcyZcr-hhBuZzk-10" target="NfuE55aOUpUb1wabYVEY-6" edge="1">
          <mxGeometry relative="1" as="geometry">
            <mxPoint x="439" y="1520" as="targetPoint" />
          </mxGeometry>
        </mxCell>
        <mxCell id="NfuE55aOUpUb1wabYVEY-2" value="" style="edgeStyle=orthogonalEdgeStyle;rounded=0;orthogonalLoop=1;jettySize=auto;html=1;entryX=1;entryY=0.5;entryDx=0;entryDy=0;" edge="1" parent="1" source="VdgBtDxcyZcr-hhBuZzk-10" target="NfuE55aOUpUb1wabYVEY-7">
          <mxGeometry relative="1" as="geometry">
            <mxPoint x="314" y="1462" as="targetPoint" />
          </mxGeometry>
        </mxCell>
        <mxCell id="VdgBtDxcyZcr-hhBuZzk-10" value="B = 0 ?" style="rhombus;whiteSpace=wrap;html=1;" parent="1" vertex="1">
          <mxGeometry x="359" y="1422" width="160" height="80" as="geometry" />
        </mxCell>
        <mxCell id="VdgBtDxcyZcr-hhBuZzk-36" value="" style="edgeStyle=orthogonalEdgeStyle;rounded=0;orthogonalLoop=1;jettySize=auto;html=1;" parent="1" source="VdgBtDxcyZcr-hhBuZzk-14" target="VdgBtDxcyZcr-hhBuZzk-16" edge="1">
          <mxGeometry relative="1" as="geometry" />
        </mxCell>
        <mxCell id="VdgBtDxcyZcr-hhBuZzk-37" value="" style="edgeStyle=orthogonalEdgeStyle;rounded=0;orthogonalLoop=1;jettySize=auto;html=1;" parent="1" source="VdgBtDxcyZcr-hhBuZzk-14" target="VdgBtDxcyZcr-hhBuZzk-17" edge="1">
          <mxGeometry relative="1" as="geometry" />
        </mxCell>
        <mxCell id="VdgBtDxcyZcr-hhBuZzk-14" value="A &amp;lt; B ?" style="rhombus;whiteSpace=wrap;html=1;" parent="1" vertex="1">
          <mxGeometry x="760" y="1540" width="160" height="80" as="geometry" />
        </mxCell>
        <mxCell id="VdgBtDxcyZcr-hhBuZzk-16" value="KQ = A - B" style="rounded=0;whiteSpace=wrap;html=1;" parent="1" vertex="1">
          <mxGeometry x="780" y="1660" width="120" height="50" as="geometry" />
        </mxCell>
        <mxCell id="VdgBtDxcyZcr-hhBuZzk-17" value="GÁN negative = &#39;Y&#39;&lt;br&gt;KQ = B - A" style="rounded=0;whiteSpace=wrap;html=1;" parent="1" vertex="1">
          <mxGeometry x="960" y="1555" width="119" height="50" as="geometry" />
        </mxCell>
        <mxCell id="VdgBtDxcyZcr-hhBuZzk-20" value="KẾT THÚC" style="ellipse;whiteSpace=wrap;html=1;" parent="1" vertex="1">
          <mxGeometry x="580" y="1880" width="120" height="80" as="geometry" />
        </mxCell>
        <mxCell id="VdgBtDxcyZcr-hhBuZzk-28" value="KQ = A * B" style="rounded=0;whiteSpace=wrap;html=1;" parent="1" vertex="1">
          <mxGeometry x="398" y="1317" width="120" height="50" as="geometry" />
        </mxCell>
        <mxCell id="VdgBtDxcyZcr-hhBuZzk-35" value="" style="endArrow=classic;html=1;rounded=0;exitX=1;exitY=0.5;exitDx=0;exitDy=0;entryX=0;entryY=0.5;entryDx=0;entryDy=0;" parent="1" source="VdgBtDxcyZcr-hhBuZzk-5" target="VdgBtDxcyZcr-hhBuZzk-14" edge="1">
          <mxGeometry width="50" height="50" relative="1" as="geometry">
            <mxPoint x="850" y="1650" as="sourcePoint" />
            <mxPoint x="900" y="1600" as="targetPoint" />
          </mxGeometry>
        </mxCell>
        <mxCell id="VdgBtDxcyZcr-hhBuZzk-46" value="Đ" style="text;html=1;strokeColor=none;fillColor=none;align=center;verticalAlign=middle;whiteSpace=wrap;rounded=0;" parent="1" vertex="1">
          <mxGeometry x="520" y="1322" width="40" height="20" as="geometry" />
        </mxCell>
        <mxCell id="VdgBtDxcyZcr-hhBuZzk-47" value="S" style="text;html=1;strokeColor=none;fillColor=none;align=center;verticalAlign=middle;whiteSpace=wrap;rounded=0;" parent="1" vertex="1">
          <mxGeometry x="631" y="1389" width="40" height="20" as="geometry" />
        </mxCell>
        <mxCell id="VdgBtDxcyZcr-hhBuZzk-48" value="S" style="text;html=1;strokeColor=none;fillColor=none;align=center;verticalAlign=middle;whiteSpace=wrap;rounded=0;" parent="1" vertex="1">
          <mxGeometry x="631" y="1506" width="40" height="20" as="geometry" />
        </mxCell>
        <mxCell id="VdgBtDxcyZcr-hhBuZzk-49" value="Đ" style="text;html=1;strokeColor=none;fillColor=none;align=center;verticalAlign=middle;whiteSpace=wrap;rounded=0;" parent="1" vertex="1">
          <mxGeometry x="523" y="1443" width="40" height="20" as="geometry" />
        </mxCell>
        <mxCell id="VdgBtDxcyZcr-hhBuZzk-51" value="S" style="text;html=1;strokeColor=none;fillColor=none;align=center;verticalAlign=middle;whiteSpace=wrap;rounded=0;" parent="1" vertex="1">
          <mxGeometry x="324" y="1443" width="40" height="20" as="geometry" />
        </mxCell>
        <mxCell id="VdgBtDxcyZcr-hhBuZzk-52" value="Đ" style="text;html=1;strokeColor=none;fillColor=none;align=center;verticalAlign=middle;whiteSpace=wrap;rounded=0;" parent="1" vertex="1">
          <mxGeometry x="429" y="1509" width="40" height="20" as="geometry" />
        </mxCell>
        <mxCell id="VdgBtDxcyZcr-hhBuZzk-55" value="Đ" style="text;html=1;strokeColor=none;fillColor=none;align=center;verticalAlign=middle;whiteSpace=wrap;rounded=0;" parent="1" vertex="1">
          <mxGeometry x="716" y="1561" width="40" height="20" as="geometry" />
        </mxCell>
        <mxCell id="VdgBtDxcyZcr-hhBuZzk-56" value="S" style="text;html=1;strokeColor=none;fillColor=none;align=center;verticalAlign=middle;whiteSpace=wrap;rounded=0;" parent="1" vertex="1">
          <mxGeometry x="630" y="1625" width="40" height="20" as="geometry" />
        </mxCell>
        <mxCell id="VdgBtDxcyZcr-hhBuZzk-57" value="Đ" style="text;html=1;strokeColor=none;fillColor=none;align=center;verticalAlign=middle;whiteSpace=wrap;rounded=0;" parent="1" vertex="1">
          <mxGeometry x="916" y="1560" width="40" height="20" as="geometry" />
        </mxCell>
        <mxCell id="VdgBtDxcyZcr-hhBuZzk-58" value="S" style="text;html=1;strokeColor=none;fillColor=none;align=center;verticalAlign=middle;whiteSpace=wrap;rounded=0;" parent="1" vertex="1">
          <mxGeometry x="833" y="1622" width="40" height="20" as="geometry" />
        </mxCell>
        <mxCell id="QY7ScXj4Pk4GNkb7YtmK-5" value="" style="edgeStyle=orthogonalEdgeStyle;rounded=0;orthogonalLoop=1;jettySize=auto;html=1;" parent="1" source="QY7ScXj4Pk4GNkb7YtmK-3" target="VdgBtDxcyZcr-hhBuZzk-7" edge="1">
          <mxGeometry relative="1" as="geometry" />
        </mxCell>
        <mxCell id="QY7ScXj4Pk4GNkb7YtmK-3" value="KQ = A + B" style="rounded=0;whiteSpace=wrap;html=1;" parent="1" vertex="1">
          <mxGeometry x="580" y="1665" width="120" height="60" as="geometry" />
        </mxCell>
        <mxCell id="QY7ScXj4Pk4GNkb7YtmK-7" value="" style="endArrow=classic;html=1;rounded=0;exitX=0.5;exitY=1;exitDx=0;exitDy=0;" parent="1" source="VdgBtDxcyZcr-hhBuZzk-16" edge="1">
          <mxGeometry width="50" height="50" relative="1" as="geometry">
            <mxPoint x="780" y="1750" as="sourcePoint" />
            <mxPoint x="640" y="1750" as="targetPoint" />
            <Array as="points">
              <mxPoint x="840" y="1750" />
            </Array>
          </mxGeometry>
        </mxCell>
        <mxCell id="QY7ScXj4Pk4GNkb7YtmK-8" value="" style="endArrow=none;html=1;rounded=0;exitX=0.5;exitY=1;exitDx=0;exitDy=0;" parent="1" source="VdgBtDxcyZcr-hhBuZzk-17" edge="1">
          <mxGeometry width="50" height="50" relative="1" as="geometry">
            <mxPoint x="700" y="1750" as="sourcePoint" />
            <mxPoint x="840" y="1750" as="targetPoint" />
            <Array as="points">
              <mxPoint x="1020" y="1750" />
            </Array>
          </mxGeometry>
        </mxCell>
        <mxCell id="NfuE55aOUpUb1wabYVEY-5" value="" style="endArrow=classic;html=1;rounded=0;exitX=0;exitY=0.5;exitDx=0;exitDy=0;" edge="1" parent="1" source="NfuE55aOUpUb1wabYVEY-7">
          <mxGeometry width="50" height="50" relative="1" as="geometry">
            <mxPoint x="460" y="1890.7999267578125" as="sourcePoint" />
            <mxPoint x="640" y="1750.800048828125" as="targetPoint" />
            <Array as="points">
              <mxPoint x="160" y="1462" />
              <mxPoint x="160" y="1751" />
            </Array>
          </mxGeometry>
        </mxCell>
        <mxCell id="NfuE55aOUpUb1wabYVEY-6" value="XÓA MÀN HÌNH,&lt;br&gt;HIỂN THỊ LỖI,&lt;br&gt;DELAY 500ms,&lt;br&gt;XÓA MÀN HÌNH" style="rounded=0;whiteSpace=wrap;html=1;" vertex="1" parent="1">
          <mxGeometry x="379" y="1562" width="120" height="67" as="geometry" />
        </mxCell>
        <mxCell id="NfuE55aOUpUb1wabYVEY-7" value="KQ = A / B" style="rounded=0;whiteSpace=wrap;html=1;" vertex="1" parent="1">
          <mxGeometry x="199" y="1437" width="120" height="50" as="geometry" />
        </mxCell>
        <mxCell id="NfuE55aOUpUb1wabYVEY-8" value="" style="endArrow=none;html=1;rounded=0;exitX=0;exitY=0.5;exitDx=0;exitDy=0;" edge="1" parent="1" source="VdgBtDxcyZcr-hhBuZzk-28">
          <mxGeometry width="50" height="50" relative="1" as="geometry">
            <mxPoint x="450" y="1662" as="sourcePoint" />
            <mxPoint x="160" y="1462" as="targetPoint" />
            <Array as="points">
              <mxPoint x="160" y="1342" />
            </Array>
          </mxGeometry>
        </mxCell>
        <mxCell id="NfuE55aOUpUb1wabYVEY-10" value="" style="endArrow=classic;html=1;rounded=0;exitX=0.5;exitY=1;exitDx=0;exitDy=0;" edge="1" parent="1" source="NfuE55aOUpUb1wabYVEY-6">
          <mxGeometry width="50" height="50" relative="1" as="geometry">
            <mxPoint x="380" y="1710" as="sourcePoint" />
            <mxPoint x="640" y="1860" as="targetPoint" />
            <Array as="points">
              <mxPoint x="440" y="1860" />
            </Array>
          </mxGeometry>
        </mxCell>
      </root>
    </mxGraphModel>
  </diagram>
</mxfile>
